inDegrees=no
num_controls=7
num_derivatives=13
num_iterations=100
num_multipliers=7
num_parameters=0
num_slacks=7
num_states=26
objective=0.445731
objective_accelerations=0.057042
objective_balance=0.003269
objective_effort=0.022511
objective_height=0.357382
objective_ligament=0.005525
solver_duration=1380.400601
status=Solve_Succeeded
success=true
DataType=double
version=3
OpenSimVersion=4.5
endheader
time	/jointset/ground_pelvis/pelvis_tilt/value	/jointset/ground_pelvis/pelvis_tx/value	/jointset/ground_pelvis/pelvis_ty/value	/jointset/hip_l/hip_flexion_l/value	/jointset/hip_l/hip_adduction_l/value	/jointset/hip_l/hip_rotation_l/value	/jointset/back/lumbar_extension/value	/jointset/patellofemoral_l/patellar_flexion_l/value	/jointset/knee_l/knee_flexion_l/value	/jointset/knee_l/knee_adduction_l/value	/jointset/knee_l/knee_rotation_l/value	/jointset/ankle_l/ankle_angle_l/value	/jointset/subtalar_l/subtalar_angle_l/value	/jointset/ground_pelvis/pelvis_tilt/speed	/jointset/ground_pelvis/pelvis_tx/speed	/jointset/ground_pelvis/pelvis_ty/speed	/jointset/hip_l/hip_flexion_l/speed	/jointset/hip_l/hip_adduction_l/speed	/jointset/hip_l/hip_rotation_l/speed	/jointset/back/lumbar_extension/speed	/jointset/patellofemoral_l/patellar_flexion_l/speed	/jointset/knee_l/knee_flexion_l/speed	/jointset/knee_l/knee_adduction_l/speed	/jointset/knee_l/knee_rotation_l/speed	/jointset/ankle_l/ankle_angle_l/speed	/jointset/subtalar_l/subtalar_angle_l/speed	/forceset/tau_hip_flexion_l	/forceset/tau_hip_adduction_l	/forceset/tau_hip_rotation_l	/forceset/tau_knee_flexion_l	/forceset/tau_ankle_angle_l	/forceset/tau_subtalar_angle_l	/forceset/tau_lumbar_extension	lambda_cid13_p0	lambda_cid13_p1	lambda_cid13_p2	lambda_cid13_p3	lambda_cid13_p4	lambda_cid13_p5	lambda_cid14_p0	/jointset/ground_pelvis/pelvis_tilt/accel	/jointset/ground_pelvis/pelvis_tx/accel	/jointset/ground_pelvis/pelvis_ty/accel	/jointset/hip_l/hip_flexion_l/accel	/jointset/hip_l/hip_adduction_l/accel	/jointset/hip_l/hip_rotation_l/accel	/jointset/back/lumbar_extension/accel	/jointset/patellofemoral_l/patellar_flexion_l/accel	/jointset/knee_l/knee_flexion_l/accel	/jointset/knee_l/knee_adduction_l/accel	/jointset/knee_l/knee_rotation_l/accel	/jointset/ankle_l/ankle_angle_l/accel	/jointset/subtalar_l/subtalar_angle_l/accel	gamma_cid13_p0	gamma_cid13_p1	gamma_cid13_p2	gamma_cid13_p3	gamma_cid13_p4	gamma_cid13_p5	gamma_cid14_p0
0	-0.03933579000004906	0.06882993486249883	0.8959432106889655	0.1955287580552426	-0.3220866157704803	-0.4817986447921693	-0.1379045077516729	0.07015288079084844	0.07015288079084844	-0.1745324567503846	-0.1163445104900553	-0.06701059314715049	0.003715617495366149	0	0	0	0	0	0	0	0	0	0	0	0	0	0.1089266082486879	-0.09886750534928214	-0.03114553931250705	-0.2433213732369306	0.2104048563381502	-0.01995256842831792	-0.0525709925647927	31.78637862197471	0.1957060141472646	2.95009661689245	-5.984095133705293	-515.4455840530687	-76.86231681654199	-39.87549792615566	-4.28272522339023	-1.700012554781006	-0.9574102284362441	12.33678110831503	-2.095320480601949	3.662666502686894	-2.837470038474571	10.42813058003418	10.42813058003418	0.8579833322065323	-0.5746162847126051	2.667142350160217	-0.8510227288622366	-5.039381995967474e-08	4.31666592796404e-07	1.304288366956173e-07	7.319200827896628e-08	-7.298987166833215e-09	4.595393951228262e-09	2.073991013439167e-08
0.01	-0.03953940098775927	0.06874597517517521	0.8958967743706524	0.1961242264161403	-0.3221899930643294	-0.4816184810402794	-0.1380523322401794	0.07065913618915114	0.07065913618915111	-0.174494314178986	-0.1163704463282268	-0.06688289819315543	0.003671507028952769	-0.04047793667899743	-0.01672888050736162	-0.009254284849174453	0.1184479614774721	-0.02060108909606973	0.03550108959762766	-0.02932643670143443	0.100757422218186	0.100757422218186	0.007471795228295022	-0.00550760382580073	0.02535599093515863	-0.008836837815197151	0.1034513319673187	-0.09798712747323715	-0.03001852577921922	-0.2355718373248116	0.1989051825325998	-0.01563149672523606	-0.04806412589558201	28.22300226868958	-1.091666779326176	3.194920159392278	-4.250456223416862	-516.2676476708526	-79.59187054319671	-39.8854338643109	-3.893714971000168	-1.649852616707236	-0.9044922509383536	11.50191976924591	-2.031427737856078	3.414082638962079	-2.944461335997187	9.825495278376074	9.825495278376071	0.6683568189592125	-0.5869052478187599	2.442381962840529	-0.9023085038734106	-7.56366004459673e-08	2.245838711898667e-07	2.108454409455337e-07	6.457039890422945e-08	-2.390393021236882e-07	-9.337628609649859e-08	-5.957803850267948e-09
0.02	-0.04014046875842858	0.06849662131917927	0.8957587842762915	0.1978847976121693	-0.3224971661718886	-0.481099255902281	-0.1384862672657041	0.07215815525676872	0.07215815525676872	-0.1743861378151408	-0.1164610727679172	-0.06650713243027941	0.003538569345182426	-0.07949135659182159	-0.03307883373446299	-0.01831075520956115	0.2330205670262483	-0.04075916274200315	0.0678122772217104	-0.05722210740364116	0.1985527338629826	0.1985527338629826	0.01400675848931906	-0.01293812030379958	0.049614161776191	-0.01776544347139254	0.0979760556859495	-0.09710674959719218	-0.02889151224593123	-0.2278223014126926	0.1874055087270494	-0.01131042502215419	-0.0435572592263714	24.72423634255751	-2.390779654624809	3.4421047309451	-2.686745810611314	-516.1531225246897	-82.15290210436281	-39.91508306728121	-3.989821870155573	-1.624227098728954	-0.917847330678693	11.56170992257584	-2.006717390574686	3.024686107977913	-2.551316838629032	9.835708465356307	9.835708465356301	0.6706169387523359	-0.9591988151522285	2.447578331334967	-0.869376297061884	-1.008793809322599e-07	1.750114958332944e-08	2.912620451954501e-07	5.594878952949261e-08	-4.707796170805432e-07	-1.913479661442254e-07	-3.265551783492756e-08
0.03	-0.04112566445523908	0.06808595662727029	0.8955308877622908	0.2007743479264344	-0.3230030297874984	-0.4802672311141754	-0.1391913107086623	0.07462146278905943	0.07462146278905944	-0.1742148614476491	-0.1166305179594249	-0.06589287922941818	0.003317298769864071	-0.1173717335720428	-0.04895878307820872	-0.02725936287341754	0.344396111671984	-0.06027023573833346	0.09866775317966942	-0.08354468978160139	0.2936595056914373	0.2936595056914371	0.02031083656608207	-0.02069402166539367	0.07316879666978184	-0.02637413684460696	0.09395764675193841	-0.09452708229069703	-0.0282267437165513	-0.224340792925132	0.1833918744787891	-0.01049979050299722	-0.04015624190536431	23.49614712471945	-2.576216946409056	3.526961853357917	-2.52600224663925	-516.1508733893671	-81.99147903349528	-39.96367034734753	-3.660742781418965	-1.555569461905616	-0.8820848689141724	10.85145729053318	-1.901831957654606	3.127192502304565	-2.636445226421536	9.280778145005117	9.280778145005108	0.6196890428756876	-0.6452051695802554	2.299250547408111	-0.8394707138791572	-1.311974008745804e-07	1.632131726586969e-07	3.246386949295977e-07	1.066966967964082e-07	-6.28837614855666e-07	-1.909933468602905e-07	-2.178789819377063e-08
0.04	-0.04248438335574452	0.06751935431998222	0.8952137616947166	0.2047628497981489	-0.32369971007377	-0.4791244087339703	-0.1401523232332084	0.07802236136031769	0.07802236136031768	-0.1739786671392421	-0.116869806039132	-0.06504511078381364	0.003013370289527985	-0.1541959973308079	-0.06426635681028361	-0.03615666592427627	0.4528108785161502	-0.07892249687435968	0.1299717956416146	-0.1084159237212418	0.3860709416564948	0.3860709416564947	0.02699034667234125	-0.02690669794367797	0.09631721072485148	-0.03429702447493884	0.08993923781792723	-0.09194741498420191	-0.02756197518717139	-0.2208592844375714	0.1793782402305289	-0.009689155983840268	-0.03675522458435724	22.32677343791954	-2.772238060759889	3.61385362994391	-2.522942346214325	-515.2988373732554	-81.67400357441376	-40.02942092049276	-3.778599225864377	-1.509751976394779	-0.9075864080791589	10.96955436226197	-1.834955018513848	3.114399408775079	-2.261047150965065	9.296641292676886	9.296641292676911	0.7457033446515701	-0.6505537984902672	2.366334163630729	-0.7322151484853778	-1.616200649293963e-07	3.161993141811141e-07	3.570454486943481e-07	1.586687178085126e-07	-7.853763895961139e-07	-1.886113811983831e-07	-1.014573559125665e-08
0.05	-0.04420682340343683	0.06680248744509644	0.8948076071541692	0.2098212807059258	-0.3245792505743739	-0.4776696877509168	-0.1413536289745974	0.08233428503610073	0.08233428503610071	-0.1736757108176568	-0.1171669408075337	-0.0639683153825394	0.00263274637495712	-0.1901172157037235	-0.07901327264998262	-0.04508599746127698	0.5583052286591673	-0.09690256685342002	0.1607365140551539	-0.1315634630049898	0.4758137321428831	0.4758137321428845	0.03344340928965267	-0.0325493401394981	0.1188979668903868	-0.04181824965542406	0.08487304980149013	-0.08760851300335062	-0.02672220348510812	-0.2164241591246693	0.1741959880475371	-0.009692063614268642	-0.03261937031677552	20.74210565934031	-2.591071229392102	3.696407213174507	-1.977568505273489	-514.5059625132843	-80.46674096727696	-40.11009558309845	-3.472678228972745	-1.443067406504232	-0.887528158158771	10.25383657608105	-1.76715321861575	3.022083752448037	-2.299343084344656	8.738090658104698	8.738090658104838	0.5715765134464046	-0.5254448787618486	2.182358977377942	-0.7607400431124639	-1.831108324328371e-07	2.471357141844951e-07	4.192177563109089e-07	1.643587198721198e-07	-9.011722710663041e-07	-2.424200260146435e-07	-2.349851744085128e-08
